<?xml version="1.0" encoding="UTF-8"?>
<svg fill="#FFFFFF" width="100pt" height="100pt" version="1.1" viewBox="0 0 100 100" xmlns="http://www.w3.org/2000/svg">
 <path d="m81.094 22.781c-5.6953 0-10.316 4.6172-10.316 10.316 0 2.793 1.1133 5.3242 2.918 7.1797l-11.316 18.66c-0.59766-0.13672-1.2148-0.21484-1.8516-0.21484-2.0781 0-3.9727 0.76953-5.4258 2.0312l-16.496-9.8164c0.042969-0.31641 0.074219-0.63281 0.074219-0.96094 0-3.7422-3.0391-6.7812-6.7852-6.7812-3.7461 0-6.7812 3.0352-6.7812 6.7812 0 1.1562 0.28906 2.2422 0.79688 3.1953l-10.734 13.105c-0.34375-0.066406-0.70312-0.10547-1.0664-0.10547-3.0508 0-5.5234 2.4766-5.5234 5.5195 0 3.0508 2.4727 5.5234 5.5234 5.5234 3.0469 0 5.5195-2.4727 5.5195-5.5234 0-0.74609-0.14844-1.4609-0.42188-2.1133l10.742-13.105c0.61719 0.18359 1.2695 0.28516 1.9492 0.28516 1.5195 0 2.9141-0.50391 4.043-1.3438l16.492 9.8164c-0.125 0.57422-0.19922 1.168-0.19922 1.7852 0 4.582 3.7148 8.293 8.293 8.293s8.293-3.7109 8.293-8.293c0-2.0547-0.74609-3.9297-1.9844-5.3789l11.312-18.652c0.93359 0.28125 1.9219 0.43359 2.9453 0.43359 5.6992 0 10.32-4.6172 10.32-10.32 0-5.6992-4.6211-10.316-10.32-10.316z"/>
</svg>
